<svg xmlns="http://www.w3.org/2000/svg" width="1494" height="314" fill="none"  xmlns:v="https://vecta.io/nano"><circle cx="126.598" cy="126.598" r="126.598" fill="#fec7a9"/><circle cx="192.912" cy="186.883" r="126.598" fill="#3b41c5"/><path d="M1014.5 236.673c-12.34 0-23.418-2.603-33.232-7.807s-17.472-12.417-22.975-21.636c-5.502-9.369-8.253-19.927-8.253-31.674s2.751-22.231 8.253-31.451 13.086-16.432 22.752-21.636c9.814-5.205 20.965-7.807 33.455-7.807 11.75 0 22.01 2.379 30.78 7.138 8.93 4.758 15.62 11.599 20.08 20.521l-21.41 12.491c-3.42-5.502-7.74-9.592-12.94-12.268-5.06-2.826-10.63-4.238-16.73-4.238-10.41 0-19.034 3.42-25.874 10.26-6.841 6.692-10.261 15.688-10.261 26.99s3.346 20.372 10.038 27.212c6.84 6.692 15.537 10.038 26.097 10.038 6.1 0 11.67-1.338 16.73-4.015 5.2-2.825 9.52-6.989 12.94-12.491l21.41 12.491c-4.61 8.922-11.38 15.837-20.3 20.744-8.77 4.759-18.96 7.138-30.56 7.138zm73.87-167.068h27.88v165.506h-27.88V69.605zm109.98 45.057c17.55 0 30.93 4.238 40.15 12.714 9.37 8.327 14.05 20.967 14.05 37.919v69.816h-26.32v-14.498c-3.42 5.204-8.32 9.219-14.72 12.045-6.24 2.676-13.83 4.015-22.75 4.015s-16.73-1.487-23.42-4.461c-6.69-3.123-11.9-7.361-15.61-12.714-3.57-5.502-5.36-11.674-5.36-18.514 0-10.707 3.94-19.257 11.83-25.651 8.03-6.543 20.59-9.815 37.69-9.815h30.78v-1.784c0-8.327-2.53-14.722-7.58-19.183-4.91-4.461-12.27-6.691-22.08-6.691-6.7 0-13.31 1.041-19.86 3.122-6.39 2.082-11.82 4.982-16.28 8.7l-10.93-20.298c6.25-4.759 13.76-8.402 22.53-10.93s18.07-3.792 27.88-3.792zm-3.79 101.713c6.99 0 13.16-1.562 18.51-4.684 5.51-3.272 9.37-7.882 11.6-13.83v-13.829h-28.77c-16.06 0-24.09 5.279-24.09 15.837 0 5.056 2.01 9.071 6.02 12.045 4.02 2.974 9.59 4.461 16.73 4.461zm130.58 20.298c-9.66 0-19.11-1.264-28.33-3.792s-16.58-5.725-22.08-9.591l10.71-21.191c5.35 3.569 11.75 6.469 19.18 8.699 7.58 2.082 15.02 3.123 22.31 3.123 16.65 0 24.98-4.387 24.98-13.16 0-4.164-2.16-7.063-6.47-8.699-4.16-1.636-10.93-3.197-20.3-4.684-9.81-1.487-17.84-3.197-24.09-5.131-6.1-1.933-11.45-5.278-16.06-10.037-4.46-4.907-6.69-11.673-6.69-20.298 0-11.301 4.68-20.298 14.05-26.99 9.52-6.84 22.31-10.26 38.37-10.26 8.18 0 16.36.967 24.53 2.9 8.18 1.784 14.87 4.238 20.08 7.36l-10.71 21.191c-10.11-5.948-21.49-8.923-34.13-8.923-8.17 0-14.42 1.264-18.73 3.792-4.17 2.38-6.25 5.577-6.25 9.592 0 4.461 2.23 7.658 6.69 9.591 4.61 1.785 11.68 3.495 21.19 5.13 9.52 1.487 17.33 3.197 23.43 5.131 6.09 1.933 11.3 5.204 15.61 9.814 4.46 4.61 6.69 11.153 6.69 19.629 0 11.153-4.83 20.075-14.5 26.766-9.66 6.692-22.82 10.038-39.48 10.038zm114.8 0c-9.67 0-19.11-1.264-28.33-3.792s-16.58-5.725-22.08-9.591l10.7-21.191c5.36 3.569 11.75 6.469 19.19 8.699 7.58 2.082 15.01 3.123 22.3 3.123 16.66 0 24.98-4.387 24.98-13.16 0-4.164-2.15-7.063-6.47-8.699-4.16-1.636-10.93-3.197-20.29-4.684-9.82-1.487-17.85-3.197-24.09-5.131-6.1-1.933-11.45-5.278-16.06-10.037-4.46-4.907-6.7-11.673-6.7-20.298 0-11.301 4.69-20.298 14.06-26.99 9.51-6.84 22.3-10.26 38.36-10.26 8.18 0 16.36.967 24.54 2.9 8.18 1.784 14.87 4.238 20.07 7.36l-10.7 21.191c-10.12-5.948-21.49-8.923-34.13-8.923-8.18 0-14.42 1.264-18.74 3.792-4.16 2.38-6.24 5.577-6.24 9.592 0 4.461 2.23 7.658 6.69 9.591 4.61 1.785 11.67 3.495 21.19 5.13 9.52 1.487 17.32 3.197 23.42 5.131s11.3 5.204 15.61 9.814c4.46 4.61 6.7 11.153 6.7 19.629 0 11.153-4.84 20.075-14.5 26.766-9.67 6.692-22.83 10.038-39.48 10.038z" fill="#fec7a9"/><path d="M565.805 116l-43.942 119.111h-26.766l-30.782-82.084-31.228 82.084h-26.766L362.602 116h26.321l31.45 87.884L453.162 116h23.421l32.12 88.33L541.046 116h24.759zm69.436 120.673c-12.045 0-22.9-2.602-32.566-7.807s-17.25-12.417-22.752-21.636c-5.353-9.369-8.03-19.927-8.03-31.674s2.677-22.231 8.03-31.451c5.502-9.219 13.086-16.431 22.752-21.636s20.521-7.807 32.566-7.807c12.194 0 23.123 2.602 32.789 7.807s17.175 12.417 22.528 21.636c5.502 9.22 8.253 19.703 8.253 31.451s-2.751 22.305-8.253 31.674c-5.353 9.219-12.862 16.431-22.528 21.636s-20.595 7.807-32.789 7.807zm0-23.867c10.26 0 18.736-3.42 25.428-10.26s10.038-15.837 10.038-26.99-3.346-20.149-10.038-26.99-15.168-10.26-25.428-10.26-18.737 3.42-25.428 10.26c-6.543 6.841-9.815 15.837-9.815 26.99s3.272 20.149 9.815 26.99c6.691 6.84 15.167 10.26 25.428 10.26zm116.776-79.407c8.03-12.491 22.157-18.737 42.38-18.737v26.544c-2.379-.447-4.535-.67-6.468-.67-10.856 0-19.332 3.198-25.429 9.592-6.096 6.245-9.145 15.316-9.145 27.212v57.771h-27.882V116h26.544v17.399zm114.659 50.633l-20.744 19.629v31.45H818.05V69.605h27.882v99.928L903.703 116h33.458l-49.741 49.965 54.425 69.146h-33.904l-41.265-51.079z" fill="#3b41c5"/></svg>